<?xml version="1.0" encoding="UTF-8"?><svg xmlns="http://www.w3.org/2000/svg" viewBox="0 0 591 226"><defs><style>.c{fill:#ece093;}.d{fill:#fff;}.e{fill:none;}</style></defs><g id="a"><rect class="e" width="591" height="226"/><rect class="e" width="591" height="226"/></g><g id="b"><g><path class="d" d="M163.42,176.48c.17-4.38,.98-8.98,2.43-13.81,1.45-4.83,3.42-9.49,5.93-13.97,2.51-4.48,5.48-8.7,8.91-12.63s7.21-7.36,11.31-10.28c8.82-6.27,18.07-9.41,27.75-9.41,11.76,0,19.43,4.5,23.02,13.51,1.3,3.17,1.87,7.08,1.72,11.73-.15,4.65-1,9.38-2.53,14.19-1.53,4.81-3.61,9.46-6.22,13.95-2.62,4.48-5.67,8.69-9.17,12.61-3.5,3.92-7.3,7.32-11.41,10.2-8.77,6.27-17.55,9.41-26.32,9.41-7.87,0-14.11-2.17-18.74-6.51-4.71-4.45-6.94-10.77-6.68-18.98Zm15.79-8.04c-1.36,4.41-2.1,8.16-2.2,11.24-.11,3.08,.11,5.47,.65,7.16,.54,1.7,1.31,3.13,2.3,4.29,2.07,2.48,4.74,3.72,8.01,3.72s6.54-.89,9.82-2.68c3.28-1.79,6.47-4.17,9.56-7.16,3.09-2.99,6.03-6.43,8.82-10.34,2.79-3.9,5.24-7.97,7.36-12.2,6.14-12.29,8.38-22.42,6.74-30.41-1.12-5.54-4.71-8.31-10.76-8.31-5.53,0-11.69,3.17-18.48,9.52-6.4,5.91-11.89,13.31-16.47,22.2-2.2,4.23-3.99,8.55-5.35,12.96Z"/><path class="d" d="M248.74,178.45l.06-1.59c.48-10.9,3.74-21.2,9.79-30.9,5.58-8.86,12.6-16.02,21.07-21.49,8.38-5.4,16.55-8.09,24.51-8.09,6.05,0,10.83,1.77,14.33,5.3,2.98,3.06,4.47,6.82,4.47,11.27,0,5.32-2.31,10.57-6.94,15.75-2.68,2.99-5.53,5.14-8.56,6.45-1.43,.66-2.75,.98-3.99,.98s-2.37-.22-3.4-.66c-1.04-.44-1.95-.98-2.72-1.64-1.6-1.42-2.4-2.7-2.4-3.83s.35-1.91,1.04-2.35c7.09-4.3,11.91-8.73,14.46-13.29,.99-1.75,1.49-3.46,1.49-5.14,0-3.54-1.99-5.3-5.96-5.3-6.22,0-12.64,2.86-19.25,8.59-6.18,5.29-11.37,11.92-15.56,19.91-4.37,8.2-6.68,15.73-6.94,22.59l-.06,2.08c0,8.2,2.05,13.58,6.16,16.13,1.47,.91,3.23,1.37,5.28,1.37s3.99-.22,5.8-.66c1.81-.44,3.63-1.04,5.45-1.8,2.94-1.28,6.7-3.48,11.28-6.62,1.38-.91,2.53-.78,3.44,.38,.78,.95,1.17,2.04,1.17,3.28,0,2.08-.33,3.49-1,4.24-.67,.75-1.81,1.63-3.44,2.65-1.62,1.02-3.6,1.97-5.93,2.84-5.45,2.04-10.78,3.06-16.01,3.06s-9.44-.54-12.64-1.61c-3.2-1.08-5.9-2.62-8.1-4.62-4.58-4.23-6.87-9.99-6.87-17.28Z"/><path class="d" d="M321.28,176.48c.17-4.38,.98-8.98,2.43-13.81,1.45-4.83,3.42-9.49,5.93-13.97,2.51-4.48,5.48-8.7,8.91-12.63,3.44-3.94,7.21-7.36,11.31-10.28,8.82-6.27,18.07-9.41,27.75-9.41,11.76,0,19.43,4.5,23.02,13.51,1.3,3.17,1.87,7.08,1.72,11.73-.15,4.65-1,9.38-2.53,14.19-1.54,4.81-3.61,9.46-6.22,13.95-2.62,4.48-5.67,8.69-9.17,12.61-3.5,3.92-7.3,7.32-11.41,10.2-8.77,6.27-17.55,9.41-26.32,9.41-7.87,0-14.11-2.17-18.74-6.51-4.71-4.45-6.94-10.77-6.68-18.98Zm15.79-8.04c-1.36,4.41-2.1,8.16-2.2,11.24-.11,3.08,.11,5.47,.65,7.16,.54,1.7,1.31,3.13,2.3,4.29,2.08,2.48,4.74,3.72,8.01,3.72s6.54-.89,9.82-2.68c3.28-1.79,6.47-4.17,9.56-7.16,3.09-2.99,6.03-6.43,8.82-10.34,2.79-3.9,5.24-7.97,7.36-12.2,6.14-12.29,8.38-22.42,6.74-30.41-1.12-5.54-4.71-8.31-10.76-8.31-5.53,0-11.69,3.17-18.48,9.52-6.4,5.91-11.89,13.31-16.47,22.2-2.2,4.23-3.99,8.55-5.35,12.96Z"/><path class="d" d="M469.68,135.25c0-7.25-5.68-10.88-17.05-10.88-7.13,0-14.35,1.82-21.65,5.47-2.12,1.06-3.77,2.03-4.96,2.93-1.19,.89-2.32,1.34-3.4,1.34s-2.12-.23-3.11-.68c-1-.46-1.88-1.03-2.66-1.72-2.85-2.66-2.55-5.23,.91-7.71,5.19-3.75,13.79-6.18,25.8-7.27,2.42-.22,5.49-.33,9.21-.33s7.64,.57,11.77,1.7c4.13,1.13,7.59,2.66,10.41,4.59,5.62,3.9,8.43,8.88,8.43,14.93,0,7.18-3.89,13.73-11.67,19.63-6.74,5.18-14.72,8.88-23.92,11.1,2.51,1.75,4.86,4.27,7.07,7.55l5.19,7.82c4.54,7.11,8.6,10.97,12.19,11.59,1.25,.18,2.55,.15,3.89-.11,1.34-.25,2.21-.37,2.62-.36,.41,.02,.69,.32,.84,.9,.15,.58-.03,1.31-.55,2.19s-1.36,1.7-2.53,2.46c-2.72,1.82-5.71,2.63-8.95,2.43-3.24-.2-5.87-.77-7.88-1.7s-3.8-2.11-5.38-3.53-2.98-3.01-4.21-4.76c-1.23-1.75-2.37-3.54-3.4-5.36l-2.92-5.36c-.91-1.75-1.75-3.25-2.53-4.51-.78-1.26-1.45-2.41-2.01-3.45-.56-1.04-1.19-1.98-1.88-2.82-1.47-1.9-3.35-3.1-5.64-3.61-9.08,19.69-18.3,30.92-27.68,33.69-.78,.25-1.57,.38-2.37,.38s-1.52-.12-2.17-.36-1.19-.54-1.62-.9c-.91-.69-1.36-1.46-1.36-2.3s.32-1.46,.97-1.86c6.48-3.97,13.68-15.57,21.59-34.78l3.89-9.24c4.45-10.65,8.21-17.21,11.28-19.69,1.08-.69,2.2-1.04,3.37-1.04s2.18,.16,3.05,.46c.86,.31,1.62,.7,2.27,1.18,1.47,1.09,2.2,2.21,2.2,3.34s-.29,2.14-.88,3.04c-.58,.89-1.24,2.14-1.98,3.75-2.12,4.67-3.76,8.4-4.93,11.21l-3.31,7.88c9.21-1.02,17.35-4.06,24.44-9.13,7.48-5.32,11.22-11.36,11.22-18.1Z"/><path class="d" d="M491.01,176.48c.17-4.38,.98-8.98,2.43-13.81,1.45-4.83,3.43-9.49,5.93-13.97,2.51-4.48,5.48-8.7,8.91-12.63,3.44-3.94,7.21-7.36,11.31-10.28,8.82-6.27,18.07-9.41,27.75-9.41,11.76,0,19.43,4.5,23.02,13.51,1.3,3.17,1.87,7.08,1.72,11.73-.15,4.65-1,9.38-2.53,14.19-1.54,4.81-3.61,9.46-6.22,13.95-2.62,4.48-5.67,8.69-9.17,12.61-3.5,3.92-7.3,7.32-11.41,10.2-8.77,6.27-17.55,9.41-26.32,9.41-7.87,0-14.11-2.17-18.74-6.51-4.71-4.45-6.94-10.77-6.68-18.98Zm15.79-8.04c-1.36,4.41-2.1,8.16-2.2,11.24-.11,3.08,.11,5.47,.65,7.16,.54,1.7,1.31,3.13,2.3,4.29,2.07,2.48,4.74,3.72,8.01,3.72s6.54-.89,9.82-2.68c3.28-1.79,6.47-4.17,9.56-7.16,3.09-2.99,6.03-6.43,8.82-10.34,2.79-3.9,5.24-7.97,7.36-12.2,6.14-12.29,8.38-22.42,6.74-30.41-1.12-5.54-4.71-8.31-10.76-8.31-5.53,0-11.69,3.17-18.48,9.52-6.4,5.91-11.89,13.31-16.47,22.2-2.2,4.23-3.99,8.55-5.35,12.96Z"/></g><path class="c" d="M34.52,157.64l.14-3.4c1.02-23.36,8.01-45.43,20.98-66.21,11.95-18.98,27-34.34,45.15-46.05,17.97-11.56,35.47-17.34,52.51-17.34,12.97,0,23.2,3.79,30.7,11.37,6.39,6.56,9.59,14.61,9.59,24.14,0,11.41-4.96,22.66-14.86,33.75-5.74,6.41-11.86,11.02-18.34,13.83-3.06,1.41-5.9,2.11-8.54,2.11s-5.07-.47-7.29-1.41c-2.22-.94-4.17-2.11-5.83-3.52-3.43-3.05-5.14-5.78-5.14-8.2s.74-4.1,2.22-5.04c15.19-9.22,25.51-18.71,30.98-28.48,2.13-3.75,3.2-7.42,3.2-11.02,0-7.58-4.26-11.37-12.78-11.37-13.34,0-27.09,6.13-41.26,18.4-13.25,11.33-24.36,25.55-33.34,42.66-9.36,17.58-14.31,33.71-14.86,48.4l-.14,4.45c0,17.58,4.4,29.1,13.2,34.57,3.15,1.95,6.92,2.93,11.32,2.93s8.54-.47,12.43-1.41c3.89-.94,7.78-2.23,11.67-3.87,6.3-2.73,14.35-7.46,24.17-14.18,2.96-1.95,5.42-1.68,7.36,.82,1.67,2.03,2.5,4.38,2.5,7.03,0,4.45-.72,7.48-2.15,9.08-1.44,1.6-3.89,3.5-7.36,5.68-3.47,2.19-7.71,4.22-12.71,6.09-11.67,4.38-23.11,6.56-34.31,6.56s-20.24-1.15-27.09-3.46c-6.86-2.3-12.64-5.6-17.37-9.9-9.82-9.06-14.73-21.4-14.73-37.03Z"/></g></svg>