<?xml version="1.0" encoding="UTF-8"?><svg xmlns="http://www.w3.org/2000/svg" viewBox="0 0 743.29 68.47"><defs><style>.d{fill:none;stroke:#1a1a1a;stroke-miterlimit:10;}</style></defs><g id="a"/><g id="b"><g id="c"><g><path class="d" d="M66.13,36.44v8.35H.54v-8.35h15.48v-13.83H3.06V14.33h12.96V1.01h8.93V14.33h16.56V1.01h8.93V14.33h13.46v8.28h-13.46v13.83h15.7Zm-37.88,14.62c-5.4,6.19-13.32,12.67-20.23,16.78-1.87-1.87-5.04-4.61-7.06-5.98,6.77-3.6,14.4-9.5,18.22-14.33l9.07,3.53Zm-3.31-14.62h16.56v-13.83H24.95v13.83Zm21.1,10.87c6.12,4.39,15.05,11.09,19.59,15.48l-8.5,5.04c-3.96-4.39-12.53-11.38-18.94-16.27l7.85-4.25Z"/><path class="d" d="M88.59,12.75c-.94,4.82-3.46,19.23-3.46,26.43,0,1.37,.07,3.24,.29,4.68,1.08-2.45,2.23-4.97,3.24-7.34l4.46,3.53c-2.02,5.98-4.39,13.83-5.18,17.64-.22,1.08-.36,2.66-.36,3.38,0,.79,.07,1.94,.14,2.95l-8.35,.58c-1.44-4.97-2.81-13.75-2.81-23.55,0-10.8,2.23-22.97,3.02-28.51,.22-2.02,.65-4.75,.72-7.06l10.08,.86c-.58,1.51-1.51,5.11-1.8,6.41Zm17.79,35.21c0,3.17,2.74,5.11,10.08,5.11,6.41,0,11.74-.58,18.07-1.87l.14,9.72c-4.68,.86-10.44,1.37-18.58,1.37-12.38,0-18.36-4.39-18.36-11.81,0-2.81,.43-5.69,1.22-9.36l8.28,.79c-.58,2.38-.86,4.1-.86,6.05Zm26.07-36.87v9.29c-8.86,.79-21.89,.86-30.96,0V11.16c8.86,1.22,23.19,.86,30.96-.07Z"/><path class="d" d="M183.99,27.87c-3.1,2.38-6.34,4.61-9.65,6.7,8.06-.94,15.91-2.23,21.24-3.67l5.26,5.62c-8.93,2.45-21.31,3.82-32.26,4.61l-.86,3.67h33.27s-.14,2.38-.43,3.6c-1.73,9.72-3.46,14.62-5.9,16.78-1.94,1.87-3.89,2.38-6.91,2.52-2.38,.22-6.48,.22-10.8,0-.14-2.38-1.22-5.62-2.74-7.92,4.18,.43,8.71,.58,10.58,.58,1.37,0,2.3-.14,3.17-.72,1.15-.94,2.3-3.38,3.24-7.92h-25.27l-.86,3.31-8.57-1.22c1.01-3.02,2.09-6.91,3.1-11.02-3.89,1.87-7.85,3.6-11.81,5.18-1.15-1.73-3.67-4.97-5.26-6.55,6.55-2.3,13.03-5.04,19.23-8.35l.36-1.66,2.3,.29c2.23-1.22,4.39-2.52,6.48-3.82h-25.2v-7.2h22.11v-5.76h-16.56V7.92h16.56V.51h8.5V7.92h15.12v3.67c2.59-2.66,4.97-5.4,7.13-8.21l6.91,3.82c-3.74,4.75-7.99,9.29-12.67,13.46h15.62v7.2h-24.41Zm-2.88-7.2c2.38-1.87,4.68-3.74,6.84-5.76h-11.67v5.76h4.82Z"/><path class="d" d="M262.91,29.67c-3.31,2.81-10.01,9-11.74,10.87,.65-.07,1.94,.22,2.74,.5,2.09,.65,3.38,2.23,4.32,4.9,.65,1.94,1.44,4.68,2.09,6.55,.65,2.23,2.23,3.38,5.04,3.38,5.54,0,10.51-.58,14.11-1.3l-.58,9.43c-2.95,.58-10.37,1.08-14.11,1.08-6.84,0-10.51-1.51-12.31-6.19-.72-2.16-1.58-5.54-2.09-7.34-.79-2.52-2.38-3.46-3.82-3.46-1.51,0-3.02,1.15-4.75,2.88-2.45,2.52-7.85,8.42-12.82,14.76l-8.5-5.98c1.3-1.08,3.02-2.59,4.97-4.46,3.67-3.74,18.43-18.43,24.99-25.35-5.04,.14-13.68,.94-17.79,1.3-2.52,.22-4.68,.58-6.19,.79l-.86-9.94c1.66,.14,4.25,.29,6.91,.22,3.38,0,19.73-.72,25.71-1.51,1.37-.14,3.31-.5,4.1-.79l5.26,5.98c-1.87,1.3-3.38,2.59-4.68,3.67Zm2.16-23.04l-1.15,8.42c-7.56-.58-21.03-2.16-29.59-3.6l1.37-8.35c8.06,1.51,21.89,3.02,29.38,3.53Z"/><path class="d" d="M288.1,50.55l7.49-6.48c5.11,4.18,12.1,11.3,15.7,15.77l-7.71,6.62c-4.39-5.4-10.51-11.59-15.48-15.91Z"/><path class="d" d="M392,1.3h7.85v31.32c0,14.4-1.87,27-16.06,34.85-1.3-1.8-4.25-4.68-6.05-5.98,8.5-4.54,12.03-10.58,13.39-17.71-2.81,2.3-5.76,4.61-8.35,6.62l-4.39-7.2c3.38-2.02,8.5-5.4,13.46-8.78l.14,.29v-9.5l-4.25,2.59c-1.15-3.6-3.74-9.07-6.26-13.39v7.63h-5.98v9.29l5.47-2.02,1.58,7.56c-2.3,.94-4.68,1.8-7.06,2.66v19.15c0,3.96-.72,6.12-2.88,7.49-2.16,1.37-5.26,1.66-9.94,1.58-.22-2.09-1.15-5.62-2.16-7.92,2.59,.14,5.04,.14,5.9,.07,.86,0,1.22-.29,1.22-1.22v-16.13l-6.55,2.45-2.16-8.06c2.45-.79,5.4-1.8,8.71-2.88v-12.02h-7.78v-7.92h7.78V.58h7.85V14.12h5.83l-.65-1.08,6.34-3.46c1.73,2.59,3.46,5.83,4.97,8.71V1.3Zm26.28,58.11c1.44,0,1.73-2.09,1.94-9.36,1.87,1.44,4.97,2.88,7.2,3.38-.79,9.79-2.81,13.61-8.42,13.61h-6.26c-6.48,0-8.28-2.52-8.28-11.52V1.3h8.06V22.33c2.16-4.18,4.54-9.5,5.83-13.61l7.63,3.89c-2.95,5.33-6.19,11.38-8.86,15.19l-4.61-2.59v8.06l2.09-2.02c4.68,3.89,10.23,9.22,12.89,12.67l-5.47,6.05c-2.02-2.88-5.76-7.06-9.5-10.73v16.35c0,3.31,.22,3.82,1.73,3.82h4.03Z"/><path class="d" d="M455.07,55.88v11.81h-8.14v-11.81h-15.34v-7.56h15.34v-4.25h-12.82V17.28h28.95l-6.55-2.16c2.23-3.89,4.83-9.86,6.05-14.4l8.86,2.38c-2.59,5.11-5.69,10.66-8.06,14.19h4.68v26.79h-12.96v4.25h14.91v7.56h-14.91Zm-19.08-39.46c-.5-3.17-2.45-8.28-4.39-12.1l6.98-2.23c2.09,3.67,4.18,8.57,4.83,11.81l-7.42,2.52Zm5.04,11.3h6.41v-4.18h-6.41v4.18Zm0,10.01h6.41v-4.1h-6.41v4.1Zm6.48-23.19c-.29-3.24-1.58-8.42-3.02-12.38l7.06-1.58c1.58,3.74,3.02,8.79,3.53,11.95l-7.56,2.02Zm13.18,9h-6.12v4.18h6.12v-4.18Zm0,10.08h-6.12v4.1h6.12v-4.1Zm36.65-2.09c-2.23,6.84-5.62,13.47-9.87,19.37,1.15,3.96,2.52,6.26,4.03,6.41,1.22,0,1.94-3.31,2.38-9.5,1.37,1.8,4.75,4.1,6.12,4.9-1.87,12.1-5.47,14.91-8.5,14.76-4.32-.14-7.63-3.46-10.08-9.29-3.74,3.89-7.92,7.13-12.38,9.58-1.44-1.94-4.03-4.46-6.19-5.98,6.05-2.74,11.38-6.98,15.91-12.17-1.37-5.83-2.38-12.89-3.02-21.03l-6.19,.79-.86-7.92,6.41-.79c-.36-6.19-.58-12.82-.79-19.87h8.14c.07,6.62,.29,12.96,.65,18.94l15.19-1.87,.86,7.85-15.48,1.94c.43,4.68,.94,9.07,1.58,12.89,2.3-4.03,4.25-8.28,5.62-12.67l6.48,3.67Zm-5.98-14.26c-1.15-3.31-3.96-8.71-6.77-12.53l6.48-3.38c2.88,3.82,6.05,8.78,7.2,12.17l-6.91,3.74Z"/><path class="d" d="M527,13.97c-.29,7.78-.86,23.91-.86,32.83,0,7.27,4.32,9.65,9.94,9.65,11.88,0,19.44-6.84,24.63-14.69l6.55,7.92c-4.61,6.91-14.83,16.56-31.25,16.56-11.81,0-19.44-5.18-19.44-17.5,0-9.65,.72-28.59,.72-34.78,0-3.38-.29-6.84-.94-9.72l11.59,.14c-.43,3.02-.79,6.7-.94,9.58Z"/><path class="d" d="M615.78,8.36c-.07,.72-.07,1.8-.07,2.95,5.91-.29,11.88-.86,18.22-1.94l-.07,8.28c-4.75,.58-11.3,1.22-18.29,1.58v7.42c7.27-.36,13.39-.94,19.23-1.73l-.07,8.5c-6.48,.72-12.1,1.22-19.01,1.44,.14,2.74,.29,5.69,.5,8.57,9.07,2.59,15.99,7.42,20.16,10.87l-5.18,8.06c-3.89-3.6-8.78-7.42-14.54-10.01,.07,1.01,.07,1.87,.07,2.66,0,6.12-4.68,10.87-14.19,10.87-11.52,0-17.57-4.39-17.57-12.03s6.7-12.38,17.79-12.38c1.51,0,3.02,.07,4.46,.22-.14-2.23-.22-4.54-.29-6.7h-3.74c-4.18,0-12.39-.36-17.14-.94l-.07-8.5c4.68,.86,13.54,1.37,17.35,1.37h3.46c0-2.38,0-4.97,.07-7.42h-2.66c-4.54,0-12.89-.65-17.64-1.3l-.22-8.21c5.18,.86,13.39,1.58,17.79,1.58h2.81v-3.38c0-1.37-.14-3.6-.43-4.97h9.72c-.22,1.44-.36,3.24-.43,5.11Zm-14.54,49.4c3.82,0,6.34-1.08,6.34-5.26,0-.79,0-1.8-.07-3.1-1.94-.29-3.89-.5-5.91-.5-5.11,0-7.92,2.02-7.92,4.46,0,2.74,2.59,4.39,7.56,4.39Z"/><path class="d" d="M691.74,9.65c0,.58,0,1.37-.07,2.23,7.27,0,17.14-.14,20.88-.07l-.07,8.5c-4.32-.22-11.02-.36-20.81-.36,0,3.67,.07,7.63,.07,10.8,1.73,2.74,2.59,6.12,2.59,9.86,0,9.36-5.47,21.31-23.04,26.21l-7.71-7.63c7.27-1.51,13.61-3.89,17.57-8.21-1.01,.22-2.09,.36-3.24,.36-5.54,0-12.38-4.46-12.38-13.25,0-8.14,6.55-13.47,14.4-13.47,1.01,0,1.94,.07,2.88,.22,0-1.58,0-3.24-.07-4.82-10.87,.14-22.11,.58-30.96,1.08l-.22-8.71c8.21,0,21.31-.29,31.11-.43-.07-.94-.07-1.66-.14-2.23-.22-2.95-.5-5.4-.72-6.26h10.44c-.14,1.15-.43,5.04-.5,6.19Zm-12.02,33.7c3.02,0,5.69-2.3,4.68-8.64-1.01-1.66-2.74-2.52-4.68-2.52-2.81,0-5.54,1.94-5.54,5.76,0,3.31,2.66,5.4,5.54,5.4Z"/><path class="d" d="M742.79,55.3c0,6.41-5.18,11.67-11.67,11.67s-11.59-5.26-11.59-11.67,5.26-11.67,11.59-11.67,11.67,5.26,11.67,11.67Zm-5.18,0c0-3.6-2.88-6.48-6.48-6.48s-6.41,2.88-6.41,6.48,2.95,6.48,6.41,6.48,6.48-2.88,6.48-6.48Z"/></g></g></g></svg>