<?xml version="1.0" encoding="UTF-8"?><svg xmlns="http://www.w3.org/2000/svg" viewBox="0 0 605.47 181.9"><defs><style>.d{fill:#1a1a1a;}</style></defs><g id="a"/><g id="b"><g id="c"><g><path class="d" d="M.47,49.81c3.6-2.65,7.24-9.46,10.91-20.44,2.12-6.4,3.6-12.17,4.44-17.31,.23-1.44,.34-2.54,.34-3.31-.85,.04-1.65,.27-2.38,.69l-2.34,1.34c-.65,.35-1.51,.07-2.58-.84-1.07-.92-1.56-1.69-1.47-2.33,.09-.64,.45-1.16,1.06-1.56,.61-.41,1.33-.75,2.14-1.05,1.71-.6,3.14-.91,4.3-.91s2.18,.09,3.06,.27c.89,.18,1.69,.47,2.42,.89,1.67,.96,2.52,2.33,2.56,4.12,.08,3.1-.97,8.38-3.16,15.81-3.46,11.77-7.52,20.04-12.19,24.81-1.27,1.31-2.59,2.21-3.97,2.69-.38,.15-.76,.22-1.14,.22s-.73-.07-1.05-.2-.57-.31-.78-.52c-.44-.4-.66-.83-.66-1.31s.16-.83,.47-1.06Z"/><path class="d" d="M67.72,44.38c0,1.92,.68,2.88,2.03,2.88,.94,0,1.71-.15,2.33-.44,.61-.29,1.03-.44,1.23-.44,.44,0,.66,.23,.66,.69,0,1.79-.94,3.33-2.81,4.62-1.98,1.35-4,1.69-6.06,1-1.35-.48-2.35-1.51-3-3.09-.31-.81-.47-1.55-.47-2.22,0-1.08,.1-2.23,.31-3.44-1.94,3.96-4.34,6.69-7.22,8.19-1.15,.58-2.36,.88-3.66,.88s-2.41-.27-3.36-.8c-.95-.53-1.76-1.27-2.42-2.2-1.35-1.96-1.97-4.42-1.84-7.38,.12-3.71,1.22-7.34,3.28-10.91,1.9-3.33,4.29-6.05,7.19-8.16,2.9-2.15,5.6-3.22,8.12-3.22s4.55,1.16,6.09,3.47c1.44-2.31,2.71-3.47,3.81-3.47,1.19,0,2.08,.22,2.69,.66,1.15,.83,1.55,1.56,1.22,2.19-5.23,10.71-7.92,17.38-8.06,20-.04,.38-.06,.77-.06,1.19Zm-17.34,.12c0,2.5,.8,3.75,2.41,3.75,1.23,0,2.74-1.04,4.53-3.12,2.62-3.06,4.95-7.19,6.97-12.38,.65-1.62,1.19-3.25,1.62-4.88-.08-1.42-.68-2.46-1.78-3.12-.38-.23-.93-.34-1.67-.34s-1.6,.27-2.59,.81c-.99,.54-1.95,1.28-2.88,2.22-.93,.94-1.79,2.05-2.59,3.33-.8,1.28-1.51,2.67-2.11,4.17-1.27,3.21-1.91,6.4-1.91,9.56Z"/><path class="d" d="M101.81,26.25c-1.21,0-3.42,1.75-6.62,5.25-2.4,2.73-4.14,4.78-5.22,6.16l-2.81,3.56c-1.21,2.29-2.16,4.2-2.84,5.72l-1.69,3.62c-.44,.9-.82,1.53-1.14,1.89-.32,.36-.76,.55-1.31,.55s-1.08-.1-1.59-.3c-.51-.2-.95-.45-1.33-.77-.79-.67-1.19-1.4-1.19-2.19,0-.31,.23-.93,.69-1.84l1.19-2.53c.38-.75,.81-1.71,1.31-2.88l1.75-4.28c2.46-6.15,3.69-10.11,3.69-11.91,0-.96-.31-1.67-.94-2.12l-.62-.44c-.21-.15-.31-.4-.31-.77s.14-.71,.42-1.05c.28-.33,.65-.62,1.11-.88,.94-.48,1.88-.72,2.83-.72s1.69,.1,2.23,.31c.54,.21,1.01,.49,1.41,.84,.79,.73,1.19,1.49,1.19,2.28s-.1,1.59-.31,2.39c-.21,.8-.47,1.61-.78,2.44-.31,.82-.65,1.62-1,2.39-.83,1.79-1.35,2.89-1.55,3.3-.2,.41-.26,.56-.17,.45,3.81-4.94,6.1-7.85,6.88-8.75,1.6-1.85,2.85-3.12,3.75-3.81,1.65-1.23,3.2-1.84,4.67-1.84s2.64,.46,3.52,1.38c.88,.92,1.31,2.12,1.31,3.62,0,1.31-.33,2.85-1,4.62-.67,1.77-1.11,3.01-1.34,3.72l4.59-6.06,2.56-3.06c1.54-1.73,2.9-2.86,4.06-3.41,1.17-.54,2.12-.81,2.86-.81s1.47,.14,2.19,.41c.72,.27,1.33,.66,1.83,1.16,1.06,1.02,1.59,2.38,1.59,4.06s-.38,3.29-1.12,5c-.75,1.71-1.41,3.11-1.97,4.2s-1.1,2.19-1.62,3.3c-1.52,3.31-2.28,5.77-2.28,7.38,0,1.12,.46,1.69,1.38,1.69s1.67-.19,2.39-.56,1.18-.56,1.39-.56c.44,0,.66,.22,.66,.66,0,1.85-.95,3.41-2.84,4.66-1.27,.85-2.43,1.28-3.48,1.28s-1.9-.12-2.55-.38c-.65-.25-1.23-.65-1.75-1.19-1.17-1.21-1.75-2.72-1.75-4.53s.23-3.48,.69-5c.46-1.52,1-2.99,1.62-4.42,.62-1.43,1.25-2.74,1.89-3.94,.64-1.2,1.12-2.15,1.45-2.86,.67-1.46,1-2.53,1-3.22,0-.81-.43-1.22-1.28-1.22-1.12,0-3.15,1.86-6.06,5.59-2.21,2.9-3.74,4.98-4.59,6.25l-2.16,3.12c-1.21,2.29-2.14,4.2-2.78,5.72l-1.59,3.62c-.4,.9-.74,1.53-1.03,1.89-.29,.36-.7,.55-1.22,.55s-1.03-.08-1.52-.25c-.49-.17-.91-.39-1.27-.66-.81-.6-1.22-1.24-1.22-1.92s.22-1.6,.67-2.78c.45-1.18,1-2.49,1.67-3.95l4.38-9.25c1.56-3.44,2.34-5.62,2.34-6.55s-.43-1.39-1.28-1.39Zm3.09,8.81s.03-.01,.03-.03l.03-.06s-.06,.07-.06,.09Z"/><path class="d" d="M151.59,51.44c-.52-.54-.94-1.23-1.27-2.08-.32-.84-.48-1.82-.48-2.94s.25-2.61,.77-4.48c.51-1.88,1.16-4.01,1.95-6.41l2.62-7.78c3.73-10.83,5.89-19.21,6.47-25.12,.19-1.75,1.04-2.62,2.56-2.62,.96,0,1.75,.23,2.38,.69,1.21,.92,1.79,1.94,1.75,3.06-.04,1.12-.24,2.5-.59,4.11-.35,1.61-.81,3.38-1.38,5.28s-1.21,3.92-1.94,6.05l-4.31,12.69c-2.48,7.21-3.72,11.86-3.72,13.97,0,1.12,.46,1.69,1.38,1.69s1.67-.19,2.39-.56,1.18-.56,1.39-.56c.44,0,.66,.22,.66,.66,0,1.85-.95,3.41-2.84,4.66-1.27,.85-2.43,1.28-3.48,1.28s-1.9-.12-2.55-.38c-.65-.25-1.23-.65-1.75-1.19Z"/><path class="d" d="M170.84,50.56c-.88-.83-1.56-1.89-2.06-3.17s-.76-2.8-.78-4.55c-.02-1.75,.19-3.52,.64-5.31,.45-1.79,1.08-3.52,1.91-5.19,.82-1.67,1.81-3.23,2.97-4.69,1.16-1.46,2.43-2.73,3.83-3.81,3.04-2.33,6.2-3.5,9.47-3.5,4.29,0,7.2,1.89,8.72,5.66,1.08,2.73,1.15,6.03,.19,9.91-.88,3.56-2.48,6.83-4.81,9.81-2.31,2.98-5.04,5.09-8.19,6.34-1.58,.62-3.14,.94-4.67,.94s-2.9-.2-4.09-.59c-1.2-.4-2.23-1.01-3.11-1.84Zm5.97-15.16c-.62,1.54-1.12,3.12-1.48,4.75-.36,1.62-.54,3.16-.52,4.61,.02,1.45,.24,2.58,.67,3.41,.43,.82,1.12,1.23,2.08,1.23s1.9-.33,2.83-.98c.93-.66,1.83-1.53,2.7-2.61,.88-1.08,1.7-2.33,2.47-3.75,.77-1.42,1.45-2.9,2.03-4.44,1.27-3.35,1.89-6.33,1.84-8.94,0-2.29-.47-3.75-1.41-4.38-.38-.25-.9-.38-1.58-.38s-1.45,.31-2.33,.92c-.88,.61-1.75,1.44-2.62,2.48-.88,1.04-1.72,2.26-2.53,3.66-.81,1.4-1.53,2.86-2.16,4.41Z"/><path class="d" d="M203.75,50.56c-.88-.83-1.56-1.89-2.06-3.17s-.76-2.8-.78-4.55c-.02-1.75,.19-3.52,.64-5.31,.45-1.79,1.08-3.52,1.91-5.19,.82-1.67,1.81-3.23,2.97-4.69,1.16-1.46,2.43-2.73,3.83-3.81,3.04-2.33,6.2-3.5,9.47-3.5,4.29,0,7.2,1.89,8.72,5.66,1.08,2.73,1.15,6.03,.19,9.91-.88,3.56-2.48,6.83-4.81,9.81-2.31,2.98-5.04,5.09-8.19,6.34-1.58,.62-3.14,.94-4.67,.94s-2.9-.2-4.09-.59c-1.2-.4-2.23-1.01-3.11-1.84Zm5.97-15.16c-.62,1.54-1.12,3.12-1.48,4.75-.36,1.62-.54,3.16-.52,4.61,.02,1.45,.24,2.58,.67,3.41,.43,.82,1.12,1.23,2.08,1.23s1.9-.33,2.83-.98c.93-.66,1.83-1.53,2.7-2.61,.88-1.08,1.7-2.33,2.47-3.75,.77-1.42,1.45-2.9,2.03-4.44,1.27-3.35,1.88-6.33,1.84-8.94,0-2.29-.47-3.75-1.41-4.38-.38-.25-.9-.38-1.58-.38s-1.45,.31-2.33,.92c-.88,.61-1.75,1.44-2.62,2.48-.88,1.04-1.72,2.26-2.53,3.66-.81,1.4-1.53,2.86-2.16,4.41Z"/><path class="d" d="M254.44,52.97c-4.73,0-8.5-4.49-11.31-13.47-1.1,2.04-2.02,3.9-2.75,5.56l-1.88,4.25c-.54,1.17-1.05,2.07-1.52,2.72-.47,.65-1,.97-1.58,.97s-1.12-.1-1.59-.3c-.48-.2-.9-.45-1.25-.77-.73-.67-1.09-1.4-1.09-2.19,0-.31,.22-.93,.66-1.84l1.25-2.53c3.9-8.02,7.43-18.19,10.59-30.5,1.17-4.54,2.01-8.62,2.53-12.25,.23-1.75,1.08-2.62,2.56-2.62,.88,0,1.6,.23,2.19,.69,1.12,.9,1.67,1.86,1.62,2.89-.04,1.03-.18,2.19-.42,3.48-.24,1.29-.56,2.7-.95,4.23-.4,1.53-.84,3.13-1.34,4.8-1.35,4.35-2.37,7.46-3.03,9.31l-2.94,8.09c-.38,.96-.67,1.66-.88,2.09,4.83-1.92,8.46-4.08,10.88-6.5,1.46-1.46,2.19-2.82,2.19-4.09,0-.65-.21-1.11-.64-1.41-.43-.29-.72-.52-.88-.67s-.17-.44-.03-.84c.13-.41,.53-.8,1.17-1.17,.65-.38,1.43-.56,2.34-.56s1.68,.08,2.3,.25c.61,.17,1.15,.43,1.61,.78,1.02,.73,1.53,1.76,1.53,3.09s-.28,2.56-.84,3.67c-.56,1.11-1.44,2.19-2.62,3.23-2.35,2-6.12,3.94-11.31,5.81,.65,2.77,1.83,5.21,3.56,7.31,1.65,2,3.16,3,4.53,3,.73,0,1.35-.12,1.88-.38l1.12-.56c.23-.12,.45-.19,.66-.19,.52,0,.78,.31,.78,.94,0,.54-.09,1.02-.28,1.42s-.45,.84-.8,1.3c-.34,.46-.79,.91-1.33,1.34-1.35,1.06-2.92,1.59-4.69,1.59Z"/><path class="d" d="M276.06,46.84c.54,0,.81,.35,.81,1.06,0,.94-.43,1.91-1.28,2.91-1.25,1.46-2.93,2.19-5.03,2.19-2.42,0-4.07-.98-4.97-2.94-.33-.69-.5-1.52-.5-2.5s.17-2.07,.52-3.27c.34-1.2,.77-2.46,1.28-3.78,.51-1.32,1.07-2.66,1.67-4.02l1.66-3.94c1.21-2.94,1.81-4.88,1.81-5.81s-.1-1.56-.3-1.86c-.2-.3-.41-.54-.64-.7l-.62-.44c-.21-.15-.31-.4-.31-.77s.14-.71,.42-1.05c.28-.33,.65-.62,1.11-.88,.94-.48,2.03-.72,3.28-.72,3.06,0,4.59,.8,4.59,2.41,0,1.88-.49,4.02-1.47,6.42-.98,2.41-1.81,4.35-2.5,5.83l-1.88,4.31c-1.38,3.17-2.06,5.45-2.06,6.84,0,.92,.46,1.38,1.38,1.38s1.57-.11,2.03-.34,.79-.34,1-.34Zm6.41-33.83c-.46,.49-.98,.89-1.56,1.19-.58,.3-1.2,.49-1.84,.56-.65,.07-1.26-.03-1.83-.3-.57-.27-1.07-.66-1.48-1.16-.9-1.04-1.34-2.09-1.34-3.16s.17-1.86,.52-2.39,.78-.96,1.3-1.3c1-.65,1.94-.97,2.83-.97s1.57,.06,2.06,.19c.49,.12,.94,.33,1.36,.62,1.02,.69,1.53,1.53,1.53,2.52s-.14,1.81-.42,2.47-.65,1.23-1.11,1.72Z"/><path class="d" d="M306.44,26.25c-.65,0-1.56,.62-2.75,1.86-1.19,1.24-2.22,2.37-3.09,3.39l-2.66,3.19-5.12,6.53c-1.21,2.29-2.16,4.2-2.84,5.72l-1.69,3.62c-.44,.9-.82,1.53-1.14,1.89-.32,.36-.76,.55-1.31,.55s-1.08-.1-1.59-.3c-.51-.2-.95-.45-1.33-.77-.79-.67-1.19-1.4-1.19-2.19,0-.31,.23-.93,.69-1.84l1.19-2.53c.38-.75,.81-1.71,1.31-2.88l1.75-4.28c2.46-6.15,3.69-10.11,3.69-11.91,0-.96-.31-1.67-.94-2.12l-.62-.44c-.21-.15-.31-.4-.31-.77s.14-.71,.42-1.05c.28-.33,.65-.62,1.11-.88,.94-.48,1.88-.72,2.83-.72s1.68,.1,2.2,.31c.52,.21,.96,.49,1.31,.84,.77,.73,1.16,1.49,1.16,2.28s-.1,1.59-.3,2.39c-.2,.8-.45,1.61-.75,2.44-.3,.82-.62,1.63-.95,2.42-.33,.79-.64,1.48-.91,2.06l-.62,1.34c-.17,.33-.21,.44-.12,.31,2.31-3.21,3.83-5.27,4.56-6.19l2.19-2.62c1.6-1.88,2.86-3.11,3.78-3.72,1.85-1.25,3.31-1.88,4.38-1.88s1.96,.14,2.69,.41c.73,.27,1.36,.66,1.91,1.16,1.15,1.06,1.72,2.42,1.72,4.06s-.38,3.36-1.12,5.16c-.75,1.79-1.4,3.25-1.95,4.36-.55,1.11-1.08,2.25-1.58,3.39-1.56,3.48-2.34,6.01-2.34,7.59,0,.71,.56,1.06,1.69,1.06,.88,0,1.67-.19,2.39-.56s1.18-.56,1.39-.56c.44,0,.66,.22,.66,.66,0,1.85-.95,3.41-2.84,4.66-1.27,.85-2.44,1.28-3.5,1.28s-1.94-.11-2.64-.34c-.7-.23-1.32-.59-1.86-1.09-1.23-1.1-1.84-2.65-1.84-4.62,0-2.42,.76-5.44,2.28-9.06,1.1-2.48,1.88-4.18,2.34-5.09l1.06-2.22c.65-1.33,.97-2.39,.97-3.16s-.57-1.16-1.72-1.16Z"/><path class="d" d="M338.13,45.88c-3.17,4.75-6.68,7.12-10.53,7.12-3.48,0-5.82-1.85-7.03-5.56-.42-1.27-.62-2.83-.62-4.69s.27-3.71,.8-5.58c.53-1.86,1.25-3.63,2.17-5.3,.92-1.67,1.99-3.2,3.23-4.61,1.24-1.41,2.57-2.62,3.98-3.64,2.96-2.19,5.9-3.28,8.81-3.28s5,1.36,6.25,4.09c.25-.27,.48-.55,.69-.83,.21-.28,.44-.55,.69-.8,.54-.54,1.02-.81,1.42-.81s.83,.07,1.28,.22c.45,.15,.88,.34,1.3,.59,1.02,.6,1.41,1.17,1.16,1.69-1.15,2.48-2.1,4.92-2.88,7.31l-4.62,14.75c-3.65,11.19-8.27,18.42-13.88,21.69-1.48,.88-2.76,1.38-3.84,1.52-1.08,.14-1.87,.14-2.34,.02-.48-.12-.91-.3-1.28-.53-.81-.52-1.22-.99-1.22-1.41,0-.73,.48-1.18,1.45-1.34,.97-.17,1.98-.56,3.05-1.17,1.06-.61,2.07-1.36,3.03-2.23,3.94-3.65,6.92-9.39,8.94-17.22Zm-9.36-10.84c-.55,1.5-.98,3.04-1.3,4.61-.31,1.57-.47,2.86-.47,3.86s.03,1.76,.09,2.28c.06,.52,.19,.98,.38,1.38,.42,.88,1.03,1.31,1.84,1.31s1.61-.29,2.41-.86c.79-.57,1.62-1.36,2.5-2.36s1.75-2.18,2.62-3.53c.88-1.35,1.71-2.81,2.5-4.38,1.75-3.46,2.98-6.76,3.69-9.91-.1-.58-.46-1.18-1.06-1.78-1.19-1.15-2.26-1.72-3.22-1.72s-1.92,.3-2.88,.89c-.96,.59-1.87,1.4-2.73,2.41-.87,1.01-1.67,2.19-2.42,3.53s-1.4,2.77-1.95,4.27Z"/><path class="d" d="M369.66,59.56c0-.44,.33-1.31,.98-2.61,.66-1.3,1.38-2.96,2.16-4.98s1.53-4.12,2.23-6.31c.71-2.19,1.43-4.53,2.16-7.03l2.44-8.25-3.25,.88c-.81,0-1.48-.43-2-1.28-.12-.23-.19-.5-.19-.81s.25-.68,.75-1.11c.5-.43,1.11-.83,1.84-1.2,1.46-.75,2.96-1.32,4.5-1.72l.28-.88c.56-1.75,1.1-3.57,1.61-5.45,.51-1.89,1.05-3.72,1.62-5.52,.57-1.79,1.22-3.49,1.95-5.11,.73-1.61,1.58-3.03,2.56-4.23,2.17-2.62,4.88-3.94,8.16-3.94,2.42,0,4.33,.65,5.75,1.94,1.42,1.29,2.12,3.04,2.12,5.25s-.66,4.28-1.97,5.97c-1.1,1.4-2.33,2.09-3.69,2.09-1.69,0-2.83-.77-3.44-2.31-.17-.4-.25-.73-.25-1,0-.46,.31-.88,.94-1.25,1.15-.88,1.95-2.04,2.41-3.5,.15-.46,.22-.91,.22-1.34,0-1.71-.67-2.56-2-2.56-1.83,0-3.52,2.07-5.06,6.22-.46,1.27-.92,2.67-1.38,4.19l-2.94,9.97c1.9-.29,3.28-.44,4.14-.44s1.63,.1,2.3,.3c.67,.2,1.27,.47,1.81,.83,1.23,.81,1.84,1.81,1.84,3s-.58,1.78-1.75,1.78l-3.97-.16c-2.17,0-4.17,.09-6,.28l-2.56,9.06c-1.69,6.15-3.06,10.61-4.11,13.41-1.05,2.79-2.08,5.16-3.08,7.09-.94,1.77-2.37,2.66-4.28,2.66s-2.88-.64-2.88-1.91Z"/><path class="d" d="M401.28,50.56c-.88-.83-1.56-1.89-2.06-3.17s-.76-2.8-.78-4.55c-.02-1.75,.19-3.52,.64-5.31,.45-1.79,1.08-3.52,1.91-5.19,.82-1.67,1.81-3.23,2.97-4.69,1.16-1.46,2.43-2.73,3.83-3.81,3.04-2.33,6.2-3.5,9.47-3.5,4.29,0,7.2,1.89,8.72,5.66,1.08,2.73,1.15,6.03,.19,9.91-.88,3.56-2.48,6.83-4.81,9.81-2.31,2.98-5.04,5.09-8.19,6.34-1.58,.62-3.14,.94-4.67,.94s-2.9-.2-4.09-.59c-1.2-.4-2.23-1.01-3.11-1.84Zm5.97-15.16c-.62,1.54-1.12,3.12-1.48,4.75-.37,1.62-.54,3.16-.52,4.61,.02,1.45,.24,2.58,.67,3.41,.43,.82,1.12,1.23,2.08,1.23s1.9-.33,2.83-.98c.93-.66,1.83-1.53,2.7-2.61,.88-1.08,1.7-2.33,2.47-3.75,.77-1.42,1.45-2.9,2.03-4.44,1.27-3.35,1.88-6.33,1.84-8.94,0-2.29-.47-3.75-1.41-4.38-.38-.25-.9-.38-1.58-.38s-1.45,.31-2.33,.92c-.88,.61-1.75,1.44-2.62,2.48-.88,1.04-1.72,2.26-2.53,3.66-.81,1.4-1.53,2.86-2.16,4.41Z"/><path class="d" d="M431.41,51.94c-.42-.31-.75-.66-1-1.05-.25-.39-.39-.72-.41-1-.02-.28,.04-.62,.17-1.03,.13-.41,.32-.9,.55-1.48,4.25-10.46,6.38-17.48,6.38-21.06-.06-1-.41-1.71-1.03-2.12l-.62-.44c-.19-.15-.29-.4-.3-.77-.01-.36,.12-.71,.39-1.05,.27-.33,.62-.62,1.06-.88,.9-.48,1.82-.72,2.77-.72s1.69,.1,2.22,.31c.53,.21,.98,.49,1.36,.84,.79,.75,1.19,1.54,1.2,2.38,0,.83-.08,1.68-.28,2.53-.2,.85-.43,1.69-.7,2.52-.27,.82-.54,1.6-.81,2.34-.27,.74-.45,1.29-.53,1.64-.17,.73-.23,1.19-.19,1.38,.5-.44,.8-.86,.91-1.28l1.22-2.31c2.71-4.88,5.35-8.1,7.94-9.69,.75-.44,1.65-.66,2.7-.66s1.9,.37,2.55,1.11c.65,.74,.98,1.56,1.02,2.45,.03,.9-.03,1.64-.19,2.23s-.39,1.15-.7,1.67c-.69,1.17-1.52,1.75-2.5,1.75-.27,0-.52-.09-.75-.28l-.69-.59c-.69-.6-1.35-.91-1.98-.91s-1.41,.42-2.31,1.25c-.91,.83-1.85,1.91-2.83,3.22-3.29,4.35-5.98,9.23-8.06,14.62l-1.38,3.62c-.35,.9-.67,1.54-.94,1.92-.27,.39-.67,.58-1.2,.58s-1.06-.1-1.59-.3-1.01-.45-1.42-.77Z"/><path class="d" d="M467.73,49.11c-2.84,2.51-5.07,3.77-6.69,3.77s-2.73-.83-3.36-2.5c-.23-.58-.34-1.12-.34-1.62,0-1.35,.21-2.67,.64-3.94,.43-1.27,.85-2.46,1.27-3.56l2.75-7.09c1.06-2.9,1.71-4.92,1.94-6.06,.23-1.15,.2-1.92-.09-2.33-.29-.41-.63-.76-1.02-1.06-.39-.3-.75-.57-1.09-.81-.34-.24-.52-.54-.52-.91s.15-.71,.45-1.05c.3-.33,.7-.62,1.2-.88,1-.48,2.04-.72,3.11-.72s1.92,.11,2.53,.33c.61,.22,1.12,.5,1.52,.83,.77,.69,1.16,1.52,1.16,2.48s-.16,2.06-.48,3.27c-.32,1.21-.73,2.49-1.22,3.84-.49,1.35-1.04,2.76-1.64,4.22l-1.72,4.31c-1.35,3.48-2.18,6.08-2.47,7.81,1.96-.67,4.55-3.06,7.78-7.19,3.52-4.52,6.63-9.68,9.34-15.47,.31-.73,.7-1.2,1.16-1.41,.75-.35,1.7-.51,2.84-.47,1.81,.06,2.75,.62,2.81,1.69,.04,.65-.13,1.36-.52,2.14-.39,.78-.7,1.43-.95,1.95l-1.22,2.5c-2.44,4.94-3.66,8.95-3.66,12.03,0,2.15,.58,3.61,1.75,4.41,.33,.25,.84,.38,1.53,.38s1.5-.24,2.44-.73c.94-.49,1.83-1.16,2.69-2.02,.85-.85,1.65-1.85,2.39-2.98,.74-1.14,1.38-2.35,1.92-3.64,1.15-2.73,1.72-5.15,1.72-7.25,0-3.6-.68-6.26-2.03-7.97-.46-.54-.32-1.18,.41-1.91,.77-.77,1.98-1.16,3.62-1.16,2.02,0,3.4,1.14,4.12,3.41,.29,.85,.44,2.14,.44,3.84s-.3,3.61-.91,5.7c-.6,2.09-1.42,4.1-2.45,6.03-1.03,1.93-2.22,3.72-3.56,5.39-1.34,1.67-2.76,3.11-4.23,4.34-3.17,2.62-6.1,3.94-8.81,3.94-4.65,0-6.97-3-6.97-9,0-1.38,.12-2.72,.38-4.03-2.46,3.58-5.11,6.63-7.95,9.14Z"/><path class="d" d="M529.56,44.38c0,1.92,.68,2.88,2.03,2.88,.94,0,1.71-.15,2.33-.44,.61-.29,1.03-.44,1.23-.44,.44,0,.66,.23,.66,.69,0,1.79-.94,3.33-2.81,4.62-1.98,1.35-4,1.69-6.06,1-1.35-.48-2.35-1.51-3-3.09-.31-.81-.47-1.55-.47-2.22,0-1.08,.1-2.23,.31-3.44-1.94,3.96-4.34,6.69-7.22,8.19-1.15,.58-2.37,.88-3.66,.88s-2.41-.27-3.36-.8c-.95-.53-1.76-1.27-2.42-2.2-1.35-1.96-1.97-4.42-1.84-7.38,.12-3.71,1.22-7.34,3.28-10.91,1.9-3.33,4.29-6.05,7.19-8.16,2.9-2.15,5.6-3.22,8.12-3.22s4.55,1.16,6.09,3.47c1.44-2.31,2.71-3.47,3.81-3.47,1.19,0,2.08,.22,2.69,.66,1.15,.83,1.55,1.56,1.22,2.19-5.23,10.71-7.92,17.38-8.06,20-.04,.38-.06,.77-.06,1.19Zm-17.34,.12c0,2.5,.8,3.75,2.41,3.75,1.23,0,2.74-1.04,4.53-3.12,2.62-3.06,4.95-7.19,6.97-12.38,.65-1.62,1.19-3.25,1.62-4.88-.08-1.42-.68-2.46-1.78-3.12-.38-.23-.93-.34-1.67-.34s-1.6,.27-2.59,.81c-.99,.54-1.95,1.28-2.88,2.22-.93,.94-1.79,2.05-2.59,3.33-.8,1.28-1.51,2.67-2.11,4.17-1.27,3.21-1.91,6.4-1.91,9.56Z"/><path class="d" d="M540.22,51.94c-.42-.31-.75-.66-1-1.05-.25-.39-.39-.72-.41-1-.02-.28,.04-.62,.17-1.03,.13-.41,.32-.9,.55-1.48,4.25-10.46,6.38-17.48,6.38-21.06-.06-1-.41-1.71-1.03-2.12l-.62-.44c-.19-.15-.29-.4-.3-.77-.01-.36,.12-.71,.39-1.05,.27-.33,.62-.62,1.06-.88,.9-.48,1.82-.72,2.77-.72s1.69,.1,2.22,.31c.53,.21,.98,.49,1.36,.84,.79,.75,1.19,1.54,1.2,2.38,0,.83-.08,1.68-.28,2.53-.2,.85-.43,1.69-.7,2.52-.27,.82-.54,1.6-.81,2.34-.27,.74-.45,1.29-.53,1.64-.17,.73-.23,1.19-.19,1.38,.5-.44,.8-.86,.91-1.28l1.22-2.31c2.71-4.88,5.35-8.1,7.94-9.69,.75-.44,1.65-.66,2.7-.66s1.9,.37,2.55,1.11c.65,.74,.98,1.56,1.02,2.45,.03,.9-.03,1.64-.19,2.23s-.39,1.15-.7,1.67c-.69,1.17-1.52,1.75-2.5,1.75-.27,0-.52-.09-.75-.28l-.69-.59c-.69-.6-1.35-.91-1.98-.91s-1.41,.42-2.31,1.25c-.91,.83-1.85,1.91-2.83,3.22-3.29,4.35-5.98,9.23-8.06,14.62l-1.38,3.62c-.35,.9-.67,1.54-.94,1.92-.27,.39-.67,.58-1.2,.58s-1.06-.1-1.59-.3-1.01-.45-1.42-.77Z"/><path class="d" d="M597.41,46.38c.44,0,.66,.23,.66,.69,0,1.79-.93,3.33-2.78,4.62-1.23,.88-2.39,1.31-3.48,1.31s-1.96-.12-2.61-.38c-.65-.25-1.23-.65-1.75-1.19-1.17-1.25-1.75-2.97-1.75-5.16,0-.44,.08-1.14,.25-2.09-1.69,2.6-3.14,4.44-4.34,5.5-2.44,2.21-4.82,3.31-7.16,3.31-3.69,0-6.1-1.67-7.25-5-.42-1.23-.62-2.77-.62-4.62s.28-3.73,.84-5.62c.56-1.9,1.33-3.7,2.3-5.41,.97-1.71,2.09-3.3,3.38-4.77s2.63-2.74,4.05-3.83c3.04-2.27,5.79-3.41,8.25-3.41s4.43,1,5.91,3c3.62-12.42,6.35-19.74,8.19-21.97,.77-.92,1.58-1.38,2.44-1.38,1.42,0,2.49,.41,3.22,1.22,.23,.27,.34,.54,.34,.81s-.17,.77-.5,1.5c-.33,.73-.82,1.91-1.47,3.53-1.85,4.9-3.16,8.48-3.91,10.75-1.92,5.81-3.21,9.81-3.88,12l-1.72,5.78c-1.48,5.15-2.22,8.42-2.22,9.81s.51,2.09,1.53,2.09c.94,0,1.69-.12,2.25-.38l1.19-.56c.23-.12,.45-.19,.66-.19Zm-21.47,1.94c2.15,0,4.6-2.09,7.38-6.28,2.9-4.33,4.92-9.05,6.06-14.16-.08-1.42-.68-2.46-1.78-3.12-.38-.23-.94-.34-1.7-.34s-1.65,.28-2.66,.83c-1.01,.55-1.99,1.3-2.94,2.23-.95,.94-1.83,2.04-2.66,3.3-.82,1.26-1.54,2.6-2.14,4.02-1.31,3.08-1.97,6.11-1.97,9.08s.8,4.45,2.41,4.45Z"/><path class="d" d="M21.16,156.5c.6,0,.91,.41,.91,1.22,0,.69-.21,1.35-.62,2-.56,1.21-1.69,2.35-3.38,3.44-1.92,1.23-3.84,1.84-5.78,1.84-3.35,0-5.48-1.5-6.38-4.5-1.06-3.56,.53-11.11,4.78-22.66-2.4-.21-3.7-.62-3.91-1.25-.06-.19-.09-.39-.09-.61s.1-.47,.3-.77c.2-.29,.45-.57,.77-.84,.73-.6,1.47-.91,2.22-.91h2.47c2.25-5.27,3.85-8.27,4.81-9,.46-.33,.97-.5,1.53-.5s1.03,.07,1.41,.22c.38,.15,.71,.35,1,.62,.67,.62,1,1.32,1,2.09,0,.42-.12,.9-.38,1.44l-2.31,5.03h.75c1.29,0,2.33,0,3.12-.03l1.78-.03c.4-.02,.89-.03,1.48-.03s.89,.22,.89,.66c0,2.75-3.25,4.12-9.75,4.12h-.25l-2.12,5.5c-2.4,6.5-3.59,11.05-3.59,13.66,0,.73,.17,1.3,.5,1.7,.33,.41,.96,.61,1.88,.61s1.75-.16,2.5-.47,1.41-.66,1.97-1.05c.56-.38,1.05-.73,1.45-1.05s.75-.47,1.05-.47Z"/><path class="d" d="M28.84,162.56c-.88-.83-1.56-1.89-2.06-3.17s-.76-2.8-.78-4.55c-.02-1.75,.19-3.52,.64-5.31,.45-1.79,1.08-3.52,1.91-5.19,.82-1.67,1.81-3.23,2.97-4.69,1.16-1.46,2.43-2.73,3.83-3.81,3.04-2.33,6.2-3.5,9.47-3.5,4.29,0,7.2,1.89,8.72,5.66,1.08,2.73,1.15,6.03,.19,9.91-.88,3.56-2.48,6.83-4.81,9.81-2.31,2.98-5.04,5.09-8.19,6.34-1.58,.62-3.14,.94-4.67,.94s-2.9-.2-4.09-.59c-1.2-.4-2.23-1.01-3.11-1.84Zm5.97-15.16c-.62,1.54-1.12,3.12-1.48,4.75-.36,1.62-.54,3.16-.52,4.61,.02,1.45,.24,2.58,.67,3.41,.43,.82,1.12,1.23,2.08,1.23s1.9-.33,2.83-.98c.93-.66,1.83-1.53,2.7-2.61,.88-1.08,1.7-2.33,2.47-3.75,.77-1.42,1.45-2.9,2.03-4.44,1.27-3.35,1.89-6.33,1.84-8.94,0-2.29-.47-3.75-1.41-4.38-.38-.25-.9-.38-1.58-.38s-1.45,.31-2.33,.92c-.88,.62-1.75,1.44-2.62,2.48-.88,1.04-1.72,2.26-2.53,3.66-.81,1.4-1.53,2.87-2.16,4.41Z"/><path class="d" d="M102.06,138.25c-1.21,0-3.42,1.75-6.62,5.25-2.4,2.73-4.14,4.78-5.22,6.16l-2.81,3.56c-1.21,2.29-2.16,4.2-2.84,5.72l-1.69,3.62c-.44,.9-.82,1.53-1.14,1.89-.32,.36-.76,.55-1.31,.55s-1.08-.1-1.59-.3c-.51-.2-.95-.45-1.33-.77-.79-.67-1.19-1.4-1.19-2.19,0-.31,.23-.93,.69-1.84l1.19-2.53c.38-.75,.81-1.71,1.31-2.88l1.75-4.28c2.46-6.15,3.69-10.11,3.69-11.91,0-.96-.31-1.67-.94-2.12l-.62-.44c-.21-.15-.31-.4-.31-.77s.14-.71,.42-1.05c.28-.33,.65-.62,1.11-.88,.94-.48,1.88-.72,2.83-.72s1.69,.1,2.23,.31c.54,.21,1.01,.49,1.41,.84,.79,.73,1.19,1.49,1.19,2.28s-.1,1.59-.31,2.39c-.21,.8-.47,1.62-.78,2.44-.31,.82-.65,1.62-1,2.39-.83,1.79-1.35,2.89-1.55,3.3-.2,.41-.26,.56-.17,.45,3.81-4.94,6.1-7.85,6.88-8.75,1.6-1.85,2.85-3.12,3.75-3.81,1.65-1.23,3.2-1.84,4.67-1.84s2.64,.46,3.52,1.38c.88,.92,1.31,2.12,1.31,3.62,0,1.31-.33,2.85-1,4.62-.67,1.77-1.11,3.01-1.34,3.72l4.59-6.06,2.56-3.06c1.54-1.73,2.9-2.86,4.06-3.41,1.17-.54,2.12-.81,2.86-.81s1.47,.14,2.19,.41c.72,.27,1.33,.66,1.83,1.16,1.06,1.02,1.59,2.38,1.59,4.06s-.38,3.29-1.12,5c-.75,1.71-1.41,3.11-1.97,4.2s-1.1,2.19-1.62,3.3c-1.52,3.31-2.28,5.77-2.28,7.38,0,1.12,.46,1.69,1.38,1.69s1.67-.19,2.39-.56,1.18-.56,1.39-.56c.44,0,.66,.22,.66,.66,0,1.85-.95,3.41-2.84,4.66-1.27,.85-2.43,1.28-3.48,1.28s-1.9-.12-2.55-.38c-.65-.25-1.23-.65-1.75-1.19-1.17-1.21-1.75-2.72-1.75-4.53s.23-3.48,.69-5c.46-1.52,1-2.99,1.62-4.42,.62-1.43,1.25-2.74,1.89-3.94,.64-1.2,1.12-2.15,1.45-2.86,.67-1.46,1-2.53,1-3.22,0-.81-.43-1.22-1.28-1.22-1.12,0-3.15,1.87-6.06,5.59-2.21,2.9-3.74,4.98-4.59,6.25l-2.16,3.12c-1.21,2.29-2.14,4.2-2.78,5.72l-1.59,3.62c-.4,.9-.74,1.53-1.03,1.89-.29,.36-.7,.55-1.22,.55s-1.03-.08-1.52-.25c-.49-.17-.91-.38-1.27-.66-.81-.6-1.22-1.24-1.22-1.92s.22-1.6,.67-2.78c.45-1.18,1-2.49,1.67-3.95l4.38-9.25c1.56-3.44,2.34-5.62,2.34-6.55s-.43-1.39-1.28-1.39Zm3.09,8.81s.03,0,.03-.03l.03-.06s-.06,.07-.06,.09Z"/><path class="d" d="M130.97,153.75c.08-1.81,.39-3.55,.91-5.2,.52-1.66,1.22-3.26,2.09-4.81,.88-1.55,1.9-3.02,3.08-4.41,1.18-1.38,2.45-2.6,3.83-3.64,2.98-2.23,5.99-3.34,9.03-3.34,3.56,0,5.94,1.47,7.12,4.41,.42,1,.61,2.18,.59,3.55-.02,1.37-.28,2.62-.78,3.78s-1.19,2.21-2.08,3.16c-.89,.95-1.94,1.8-3.16,2.55s-2.55,1.39-3.98,1.91c-2.96,1.04-6.12,1.58-9.5,1.62-.08,.29-.14,.73-.16,1.31-.02,.58,.04,1.23,.19,1.95,.15,.72,.4,1.36,.75,1.92,.75,1.25,1.83,1.88,3.25,1.88,2.42,0,4.77-.71,7.06-2.12,.81-.48,1.47-.97,1.98-1.48,.51-.51,.95-.77,1.33-.77s.7,.22,.98,.67c.28,.45,.42,.95,.42,1.52,0,1.1-.31,2.06-.94,2.88-2.62,2.62-6.53,3.94-11.72,3.94-3.06,0-5.52-.92-7.38-2.75-2.08-2.08-3.06-4.92-2.94-8.5Zm18.25-17.25c-2.19,0-4.29,1.5-6.31,4.5-1.71,2.58-3.08,5.65-4.12,9.19,3.48-.35,6.5-1.73,9.06-4.12,2.35-2.25,3.53-4.41,3.53-6.47s-.72-3.09-2.16-3.09Z"/><path class="d" d="M161.16,153.75c.08-1.81,.39-3.55,.91-5.2,.52-1.66,1.22-3.26,2.09-4.81,.88-1.55,1.9-3.02,3.08-4.41,1.18-1.38,2.45-2.6,3.83-3.64,2.98-2.23,5.99-3.34,9.03-3.34,3.56,0,5.94,1.47,7.12,4.41,.42,1,.61,2.18,.59,3.55-.02,1.37-.28,2.62-.78,3.78s-1.19,2.21-2.08,3.16c-.89,.95-1.94,1.8-3.16,2.55s-2.55,1.39-3.98,1.91c-2.96,1.04-6.12,1.58-9.5,1.62-.08,.29-.14,.73-.16,1.31-.02,.58,.04,1.23,.19,1.95,.15,.72,.4,1.36,.75,1.92,.75,1.25,1.83,1.88,3.25,1.88,2.42,0,4.77-.71,7.06-2.12,.81-.48,1.47-.97,1.98-1.48,.51-.51,.95-.77,1.33-.77s.7,.22,.98,.67c.28,.45,.42,.95,.42,1.52,0,1.1-.31,2.06-.94,2.88-2.62,2.62-6.53,3.94-11.72,3.94-3.06,0-5.52-.92-7.38-2.75-2.08-2.08-3.06-4.92-2.94-8.5Zm18.25-17.25c-2.19,0-4.29,1.5-6.31,4.5-1.71,2.58-3.08,5.65-4.12,9.19,3.48-.35,6.5-1.73,9.06-4.12,2.35-2.25,3.53-4.41,3.53-6.47s-.72-3.09-2.16-3.09Z"/><path class="d" d="M209.22,156.5c.6,0,.91,.41,.91,1.22,0,.69-.21,1.35-.62,2-.56,1.21-1.69,2.35-3.38,3.44-1.92,1.23-3.84,1.84-5.78,1.84-3.35,0-5.48-1.5-6.38-4.5-1.06-3.56,.53-11.11,4.78-22.66-2.4-.21-3.7-.62-3.91-1.25-.06-.19-.09-.39-.09-.61s.1-.47,.3-.77c.2-.29,.45-.57,.77-.84,.73-.6,1.47-.91,2.22-.91h2.47c2.25-5.27,3.85-8.27,4.81-9,.46-.33,.97-.5,1.53-.5s1.03,.07,1.41,.22c.38,.15,.71,.35,1,.62,.67,.62,1,1.32,1,2.09,0,.42-.12,.9-.38,1.44l-2.31,5.03h.75c1.29,0,2.33,0,3.12-.03l1.78-.03c.4-.02,.89-.03,1.48-.03s.89,.22,.89,.66c0,2.75-3.25,4.12-9.75,4.12h-.25l-2.12,5.5c-2.4,6.5-3.59,11.05-3.59,13.66,0,.73,.17,1.3,.5,1.7,.33,.41,.96,.61,1.88,.61s1.75-.16,2.5-.47,1.41-.66,1.97-1.05c.56-.38,1.05-.73,1.45-1.05s.75-.47,1.05-.47Z"/><path class="d" d="M224.47,158.84c.54,0,.81,.35,.81,1.06,0,.94-.43,1.91-1.28,2.91-1.25,1.46-2.93,2.19-5.03,2.19-2.42,0-4.07-.98-4.97-2.94-.33-.69-.5-1.52-.5-2.5s.17-2.07,.52-3.27c.34-1.2,.77-2.46,1.28-3.78,.51-1.32,1.07-2.66,1.67-4.02l1.66-3.94c1.21-2.94,1.81-4.88,1.81-5.81s-.1-1.56-.3-1.86c-.2-.3-.41-.54-.64-.7l-.62-.44c-.21-.15-.31-.4-.31-.77s.14-.71,.42-1.05c.28-.33,.65-.62,1.11-.88,.94-.48,2.03-.72,3.28-.72,3.06,0,4.59,.8,4.59,2.41,0,1.88-.49,4.02-1.47,6.42-.98,2.41-1.81,4.35-2.5,5.83l-1.88,4.31c-1.38,3.17-2.06,5.45-2.06,6.84,0,.92,.46,1.38,1.38,1.38s1.57-.11,2.03-.34c.46-.23,.79-.34,1-.34Zm6.41-33.83c-.46,.49-.98,.89-1.56,1.19-.58,.3-1.2,.49-1.84,.56-.65,.07-1.26-.03-1.83-.3-.57-.27-1.07-.66-1.48-1.16-.9-1.04-1.34-2.09-1.34-3.16s.17-1.86,.52-2.39,.78-.96,1.3-1.3c1-.65,1.94-.97,2.83-.97s1.57,.06,2.06,.19c.49,.12,.94,.33,1.36,.62,1.02,.69,1.53,1.53,1.53,2.52s-.14,1.81-.42,2.47-.65,1.23-1.11,1.72Z"/><path class="d" d="M254.84,138.25c-.65,0-1.56,.62-2.75,1.86-1.19,1.24-2.22,2.37-3.09,3.39l-2.66,3.19-5.12,6.53c-1.21,2.29-2.16,4.2-2.84,5.72l-1.69,3.62c-.44,.9-.82,1.53-1.14,1.89-.32,.36-.76,.55-1.31,.55s-1.08-.1-1.59-.3c-.51-.2-.95-.45-1.33-.77-.79-.67-1.19-1.4-1.19-2.19,0-.31,.23-.93,.69-1.84l1.19-2.53c.38-.75,.81-1.71,1.31-2.88l1.75-4.28c2.46-6.15,3.69-10.11,3.69-11.91,0-.96-.31-1.67-.94-2.12l-.62-.44c-.21-.15-.31-.4-.31-.77s.14-.71,.42-1.05c.28-.33,.65-.62,1.11-.88,.94-.48,1.88-.72,2.83-.72s1.68,.1,2.2,.31c.52,.21,.96,.49,1.31,.84,.77,.73,1.16,1.49,1.16,2.28s-.1,1.59-.3,2.39c-.2,.8-.45,1.62-.75,2.44-.3,.82-.62,1.63-.95,2.42-.33,.79-.64,1.48-.91,2.06l-.62,1.34c-.17,.33-.21,.44-.12,.31,2.31-3.21,3.83-5.27,4.56-6.19l2.19-2.62c1.6-1.88,2.86-3.11,3.78-3.72,1.85-1.25,3.31-1.88,4.38-1.88s1.96,.14,2.69,.41c.73,.27,1.36,.66,1.91,1.16,1.15,1.06,1.72,2.42,1.72,4.06s-.38,3.37-1.12,5.16c-.75,1.79-1.4,3.25-1.95,4.36-.55,1.12-1.08,2.25-1.58,3.39-1.56,3.48-2.34,6.01-2.34,7.59,0,.71,.56,1.06,1.69,1.06,.88,0,1.67-.19,2.39-.56s1.18-.56,1.39-.56c.44,0,.66,.22,.66,.66,0,1.85-.95,3.41-2.84,4.66-1.27,.85-2.44,1.28-3.5,1.28s-1.94-.12-2.64-.34c-.7-.23-1.32-.59-1.86-1.09-1.23-1.1-1.84-2.65-1.84-4.62,0-2.42,.76-5.44,2.28-9.06,1.1-2.48,1.88-4.18,2.34-5.09l1.06-2.22c.65-1.33,.97-2.38,.97-3.16s-.57-1.16-1.72-1.16Z"/><path class="d" d="M286.53,157.88c-3.17,4.75-6.68,7.12-10.53,7.12-3.48,0-5.82-1.85-7.03-5.56-.42-1.27-.62-2.83-.62-4.69s.27-3.71,.8-5.58c.53-1.86,1.25-3.63,2.17-5.3,.92-1.67,1.99-3.2,3.23-4.61,1.24-1.41,2.57-2.62,3.98-3.64,2.96-2.19,5.9-3.28,8.81-3.28s5,1.37,6.25,4.09c.25-.27,.48-.55,.69-.83,.21-.28,.44-.55,.69-.8,.54-.54,1.02-.81,1.42-.81s.83,.07,1.28,.22c.45,.15,.88,.34,1.3,.59,1.02,.6,1.41,1.17,1.16,1.69-1.15,2.48-2.1,4.92-2.88,7.31l-4.62,14.75c-3.65,11.19-8.27,18.42-13.88,21.69-1.48,.88-2.76,1.38-3.84,1.52-1.08,.13-1.87,.14-2.34,.02-.48-.12-.91-.3-1.28-.53-.81-.52-1.22-.99-1.22-1.41,0-.73,.48-1.18,1.45-1.34,.97-.17,1.98-.56,3.05-1.17,1.06-.62,2.07-1.36,3.03-2.23,3.94-3.65,6.92-9.39,8.94-17.22Zm-9.36-10.84c-.55,1.5-.98,3.04-1.3,4.61-.31,1.57-.47,2.86-.47,3.86s.03,1.76,.09,2.28c.06,.52,.19,.98,.38,1.38,.42,.88,1.03,1.31,1.84,1.31s1.61-.29,2.41-.86c.79-.57,1.62-1.36,2.5-2.36s1.75-2.18,2.62-3.53c.88-1.35,1.71-2.81,2.5-4.38,1.75-3.46,2.98-6.76,3.69-9.91-.1-.58-.46-1.18-1.06-1.78-1.19-1.15-2.26-1.72-3.22-1.72s-1.92,.3-2.88,.89c-.96,.59-1.87,1.4-2.73,2.41-.87,1.01-1.67,2.19-2.42,3.53s-1.4,2.77-1.95,4.27Z"/><path class="d" d="M321.53,161.66c-.25-.69-.38-1.47-.38-2.36s.15-1.88,.45-2.97c.3-1.09,.69-2.23,1.17-3.42,.48-1.19,1-2.41,1.56-3.66l1.69-3.75c2.17-4.81,2.97-7.67,2.41-8.56-.25-.4-.72-.79-1.41-1.19-.25-.15-.38-.4-.38-.77s.15-.71,.45-1.05c.3-.33,.69-.62,1.17-.88,1.02-.48,2.04-.72,3.06-.72s1.8,.11,2.33,.33,.96,.5,1.3,.83c.69,.69,1.03,1.45,1.03,2.28s-.14,1.77-.41,2.8c-.27,1.03-.62,2.15-1.06,3.36-.44,1.21-.92,2.46-1.44,3.75-1.44,3.38-2.41,5.6-2.91,6.69l-1.16,2.41c-.65,1.44-.97,2.45-.97,3.03s.09,1,.28,1.23c.19,.24,.53,.36,1.02,.36s1.03-.19,1.62-.56,1.23-.88,1.92-1.5,1.4-1.35,2.14-2.17c.74-.82,1.46-1.68,2.17-2.58,1.85-2.29,3.23-4.26,4.12-5.91,4.5-8.29,6.88-12.62,7.16-13,.69-.9,1.38-1.34,2.08-1.34s1.31,.08,1.83,.23c.52,.16,.97,.38,1.34,.67,.83,.6,1.09,1.28,.77,2.03-.32,.75-.71,1.78-1.17,3.09-3.96,11.48-6.53,18.64-7.7,21.47-1.18,2.83-2.2,5.11-3.08,6.83s-1.9,3.45-3.08,5.2c-1.18,1.75-2.43,3.34-3.77,4.78-3.04,3.25-5.9,4.99-8.56,5.22-1.02,.08-1.83-.06-2.44-.44-1.04-.62-1.56-1.22-1.56-1.78s.47-.95,1.42-1.17c.95-.22,1.93-.66,2.94-1.31,1.01-.66,1.98-1.42,2.92-2.3,2.75-2.62,4.88-5.48,6.41-8.56,1.29-2.71,2.33-5.27,3.12-7.69l2.44-7.44c-.6,.73-1.27,1.58-2,2.56l-2.25,3c-1.96,2.48-3.58,4.24-4.88,5.28-2.46,1.98-4.66,2.97-6.59,2.97-2.58,0-4.3-1.11-5.16-3.34Z"/><path class="d" d="M359.69,162.56c-.88-.83-1.56-1.89-2.06-3.17s-.76-2.8-.78-4.55c-.02-1.75,.19-3.52,.64-5.31,.45-1.79,1.08-3.52,1.91-5.19,.82-1.67,1.81-3.23,2.97-4.69,1.16-1.46,2.43-2.73,3.83-3.81,3.04-2.33,6.2-3.5,9.47-3.5,4.29,0,7.2,1.89,8.72,5.66,1.08,2.73,1.15,6.03,.19,9.91-.88,3.56-2.48,6.83-4.81,9.81-2.31,2.98-5.04,5.09-8.19,6.34-1.58,.62-3.14,.94-4.67,.94s-2.9-.2-4.09-.59c-1.2-.4-2.23-1.01-3.11-1.84Zm5.97-15.16c-.62,1.54-1.12,3.12-1.48,4.75-.37,1.62-.54,3.16-.52,4.61,.02,1.45,.24,2.58,.67,3.41,.43,.82,1.12,1.23,2.08,1.23s1.9-.33,2.83-.98c.93-.66,1.83-1.53,2.7-2.61,.88-1.08,1.7-2.33,2.47-3.75,.77-1.42,1.45-2.9,2.03-4.44,1.27-3.35,1.88-6.33,1.84-8.94,0-2.29-.47-3.75-1.41-4.38-.38-.25-.9-.38-1.58-.38s-1.45,.31-2.33,.92c-.88,.62-1.75,1.44-2.62,2.48-.88,1.04-1.72,2.26-2.53,3.66-.81,1.4-1.53,2.87-2.16,4.41Z"/><path class="d" d="M418.84,158.53c.48,0,.72,.24,.72,.72,0,1.81-.9,3.33-2.69,4.56-1.21,.79-2.62,1.19-4.25,1.19-1.33,0-2.35-.31-3.06-.94-1.27-1.12-1.91-2.5-1.91-4.12,0-2.06,.86-5.22,2.59-9.47-3.21,4.33-5.46,7.21-6.75,8.64-1.29,1.43-2.42,2.54-3.38,3.33-2.08,1.71-3.97,2.56-5.66,2.56-2.58,0-4.3-1.11-5.16-3.34-.25-.69-.38-1.47-.38-2.36s.15-1.88,.45-2.97c.3-1.09,.69-2.23,1.17-3.42,.48-1.19,1-2.41,1.56-3.66l1.69-3.75c2.17-4.81,2.97-7.67,2.41-8.56-.25-.4-.72-.79-1.41-1.19-.25-.15-.38-.4-.38-.77s.15-.71,.45-1.05c.3-.33,.69-.62,1.17-.88,1.02-.48,2.04-.72,3.06-.72s1.8,.11,2.33,.33,.96,.5,1.3,.83c.69,.69,1.03,1.45,1.03,2.28s-.14,1.77-.41,2.8c-.27,1.03-.62,2.15-1.06,3.36-.44,1.21-.92,2.46-1.44,3.75-1.44,3.38-2.41,5.6-2.91,6.69l-1.16,2.41c-.65,1.44-.97,2.45-.97,3.03s.09,1,.28,1.23c.19,.24,.53,.36,1.02,.36s1.06-.23,1.7-.69c.65-.46,1.35-1.07,2.12-1.84s1.57-1.66,2.41-2.67c.83-1.01,1.65-2.06,2.44-3.14,1.56-2.12,2.71-3.83,3.44-5.12,4.42-7.81,6.77-11.9,7.06-12.25,.67-.9,1.35-1.34,2.05-1.34s1.31,.08,1.83,.23c.52,.16,.97,.38,1.34,.67,.88,.65,1.16,1.29,.84,1.94-5.08,10.6-7.82,17.27-8.22,20-.1,.94-.16,1.58-.16,1.94,0,1.58,.48,2.38,1.44,2.38,.9,0,1.63-.16,2.22-.48,.58-.32,.98-.48,1.19-.48Z"/><path class="d" d="M429.42,163.63c-.47-.46-.84-.98-1.11-1.58-.27-.59-.41-1.28-.41-2.06s.15-1.48,.45-2.09c.3-.61,.68-1.11,1.14-1.48,.81-.67,1.67-1,2.58-1s1.68,.06,2.31,.19c.63,.12,1.22,.32,1.77,.59,1.31,.67,1.97,1.62,1.97,2.88,0,1.56-.51,2.93-1.53,4.09-.96,1.08-1.95,1.68-2.98,1.78-1.03,.1-1.87,.03-2.52-.23-.65-.26-1.2-.62-1.67-1.08Zm5.2-11c-1.02,0-1.53-1.45-1.53-4.34,0-4,1.05-9.13,3.16-15.41,1.88-5.6,4-10.04,6.38-13.31,1.29-1.77,2.57-2.83,3.84-3.19,.67-.17,1.29-.25,1.86-.25s1.08,.04,1.52,.12c.44,.08,.82,.21,1.16,.38,.73,.33,1.09,.76,1.09,1.28s-.21,1.07-.62,1.66c-.42,.58-1.08,1.58-2,3-.92,1.42-1.99,3.27-3.22,5.56-2.96,5.5-5.84,12-8.66,19.5-.29,.75-.54,1.43-.73,2.05-.2,.62-.4,1.14-.61,1.58-.44,.92-.98,1.38-1.62,1.38Z"/></g></g></g></svg>